<svg width="269" height="258" viewBox="0 0 269 258" fill="none" xmlns="http://www.w3.org/2000/svg">
<path d="M160.223 1.70557C162.515 0.207916 165.32 -0.333452 168.019 0.201005C170.717 0.735563 173.089 2.30193 174.612 4.55533L206.212 51.2856C200.481 55.0298 196.498 60.8584 195.139 67.4894C193.78 74.1204 195.156 81.0111 198.966 86.6451C202.775 92.2783 208.704 96.1938 215.451 97.5294C222.198 98.865 229.207 97.5121 234.938 93.7675L266.538 140.497C268.062 142.751 268.613 145.508 268.069 148.159C267.525 150.812 265.931 153.144 263.639 154.641L108.051 256.294C105.758 257.792 102.954 258.333 100.255 257.799C97.5568 257.265 95.1847 255.698 93.6611 253.445L62.0611 206.714C67.7923 202.97 71.7762 197.142 73.1349 190.51C74.4936 183.88 73.1167 176.988 69.3076 171.355C65.4984 165.722 59.5687 161.807 52.8212 160.471C46.0752 159.135 39.0664 160.488 33.3352 164.233L1.73517 117.502C0.211504 115.248 -0.339253 112.493 0.204514 109.841C0.74828 107.188 2.34045 104.856 4.63433 103.358L160.223 1.70557Z" fill="url(#paint0_linear_140_42896)"/>
<path d="M156.805 62.4238L77.0977 130.884L117.474 134.334L112.037 195.812L191.492 130.205L151.115 126.754L156.805 62.4238Z" fill="#052249"/>
<defs>
<linearGradient id="paint0_linear_140_42896" x1="134.136" y1="4.96776e-05" x2="134.136" y2="258" gradientUnits="userSpaceOnUse">
<stop stop-color="#ADADFF"/>
<stop offset="1" stop-color="#DBDBFF"/>
</linearGradient>
</defs>
</svg>
