<svg width="87" height="80" viewBox="0 0 87 80" fill="none" xmlns="http://www.w3.org/2000/svg">
<g clip-path="url(#clip0_140_42900)">
<path d="M72.6672 31.8217C73.3059 32.0996 73.8294 32.5709 74.1226 33.1318C74.4157 33.6927 74.4544 34.2973 74.2302 34.8126L69.5804 45.4993C67.9836 44.8045 66.2295 44.6499 64.704 45.0696C63.1785 45.4893 62.0065 46.4489 61.446 47.7372C60.8855 49.0255 60.9822 50.537 61.715 51.9393C62.4478 53.3415 63.7566 54.5196 65.3534 55.2144L60.7037 65.9011C60.4795 66.4164 60.0107 66.8002 59.4005 66.9681C58.7903 67.136 58.0886 67.0741 57.4499 66.7962L14.0993 47.9345C13.4605 47.6566 12.937 47.1854 12.6439 46.6245C12.3508 46.0635 12.3121 45.4589 12.5363 44.9436L17.186 34.2569C18.7829 34.9517 20.537 35.1063 22.0625 34.6866C23.588 34.2669 24.7599 33.3074 25.3205 32.0191C25.881 30.7307 25.7842 29.2192 25.0515 27.8169C24.3187 26.4147 23.0099 25.2366 21.4131 24.5418L26.0628 13.8551C26.287 13.3398 26.7558 12.956 27.366 12.7881C27.9762 12.6203 28.6778 12.6821 29.3166 12.96L72.6672 31.8217ZM68.568 34.6599L30.0341 17.8939L27.525 23.6608L27.8322 23.9817C29.153 25.4115 30.0744 27.0567 30.5077 28.759C30.9409 30.4612 30.8715 32.1631 30.306 33.7006L30.1372 34.1148C29.4542 35.6854 28.2594 36.9988 26.6784 37.9172C25.0975 38.8355 23.1886 39.3248 21.1526 39.3336L20.7076 39.3294L18.1984 45.0963L56.7323 61.8623L59.2423 56.0934L58.9343 55.7745C57.6135 54.3447 56.6921 52.6995 56.2588 50.9973C55.8255 49.295 55.895 47.5932 56.4605 46.0556L56.6293 45.6414C58.0698 42.3305 61.6043 40.4413 65.6138 40.4227L66.0597 40.4249L68.568 34.6599ZM55.5529 38.2405L50.4805 49.8987L31.2135 41.5157L36.286 29.8575L55.5529 38.2405Z" fill="#9A9BFF"/>
</g>
<defs>
<clipPath id="clip0_140_42900">
<rect width="70.0389" height="56.5061" fill="white" transform="translate(22.5439) rotate(23.5137)"/>
</clipPath>
</defs>
</svg>
